<?xml version="1.0" encoding="UTF-8" standalone="no"?><svg xmlns="http://www.w3.org/2000/svg" xmlns:xlink="http://www.w3.org/1999/xlink" contentScriptType="application/ecmascript" contentStyleType="text/css" height="855px" preserveAspectRatio="none" style="width:1291px;height:855px;" version="1.1" viewBox="0 0 1291 855" width="1291px" zoomAndPan="magnify"><defs><filter height="300%" id="f1qr7xrve1msjb" width="300%" x="-1" y="-1"><feGaussianBlur result="blurOut" stdDeviation="2.0"/><feColorMatrix in="blurOut" result="blurOut2" type="matrix" values="0 0 0 0 0 0 0 0 0 0 0 0 0 0 0 0 0 0 .4 0"/><feOffset dx="4.0" dy="4.0" in="blurOut2" result="blurOut3"/><feBlend in="SourceGraphic" in2="blurOut3" mode="normal"/></filter></defs><g><text fill="#000000" font-family="sans-serif" font-size="18" lengthAdjust="spacingAndGlyphs" textLength="346" x="476" y="16.708">IO Protocols (auto-gen from clang-uml)</text><!--MD5=[31061a5abc77c90cb479eaa4f6f83796]
class C_0015225225004340369839--><rect fill="#FEFECE" filter="url(#f1qr7xrve1msjb)" height="124.8281" id="C_0015225225004340369839" style="stroke: #A80036; stroke-width: 1.5;" width="190" x="708" y="552.4531"/><ellipse cx="723" cy="568.4531" fill="#EB937F" rx="11" ry="11" style="stroke: #A80036; stroke-width: 1.0;"/><path d="M727.1094,574.4531 L719.3906,574.4531 L719.3906,562.0625 L727.1094,562.0625 L727.1094,564.2188 L721.8438,564.2188 L721.8438,566.8906 L726.6094,566.8906 L726.6094,569.0469 L721.8438,569.0469 L721.8438,572.2969 L727.1094,572.2969 L727.1094,574.4531 Z "/><text fill="#000000" font-family="sans-serif" font-size="12" lengthAdjust="spacingAndGlyphs" textLength="158" x="737" y="572.6074">io::protocol::WireDeviceId</text><line style="stroke: #A80036; stroke-width: 1.5;" x1="709" x2="897" y1="584.4531" y2="584.4531"/><text fill="#000000" font-family="sans-serif" font-size="11" lengthAdjust="spacingAndGlyphs" textLength="38" x="714" y="598.6636">FujiNet</text><text fill="#000000" font-family="sans-serif" font-size="11" lengthAdjust="spacingAndGlyphs" textLength="30" x="714" y="611.4683">Clock</text><text fill="#000000" font-family="sans-serif" font-size="11" lengthAdjust="spacingAndGlyphs" textLength="83" x="714" y="624.2729">ModemService</text><text fill="#000000" font-family="sans-serif" font-size="11" lengthAdjust="spacingAndGlyphs" textLength="66" x="714" y="637.0776">DiskService</text><text fill="#000000" font-family="sans-serif" font-size="11" lengthAdjust="spacingAndGlyphs" textLength="88" x="714" y="649.8823">NetworkService</text><text fill="#000000" font-family="sans-serif" font-size="11" lengthAdjust="spacingAndGlyphs" textLength="61" x="714" y="662.687">FileService</text><line style="stroke: #A80036; stroke-width: 1.5;" x1="709" x2="897" y1="669.2813" y2="669.2813"/><!--MD5=[00589bb63b8d16bc46b4cc6055ae058f]
class C_0010627602090167488081--><rect fill="#FEFECE" filter="url(#f1qr7xrve1msjb)" height="99.2188" id="C_0010627602090167488081" style="stroke: #A80036; stroke-width: 1.5;" width="160" x="35" y="199.4531"/><ellipse cx="50" cy="215.4531" fill="#EB937F" rx="11" ry="11" style="stroke: #A80036; stroke-width: 1.0;"/><path d="M54.1094,221.4531 L46.3906,221.4531 L46.3906,209.0625 L54.1094,209.0625 L54.1094,211.2188 L48.8438,211.2188 L48.8438,213.8906 L53.6094,213.8906 L53.6094,216.0469 L48.8438,216.0469 L48.8438,219.2969 L54.1094,219.2969 L54.1094,221.4531 Z "/><text fill="#000000" font-family="sans-serif" font-size="12" lengthAdjust="spacingAndGlyphs" textLength="128" x="64" y="219.6074">io::protocol::SlipByte</text><line style="stroke: #A80036; stroke-width: 1.5;" x1="36" x2="194" y1="231.4531" y2="231.4531"/><text fill="#000000" font-family="sans-serif" font-size="11" lengthAdjust="spacingAndGlyphs" textLength="21" x="41" y="245.6636">End</text><text fill="#000000" font-family="sans-serif" font-size="11" lengthAdjust="spacingAndGlyphs" textLength="41" x="41" y="258.4683">Escape</text><text fill="#000000" font-family="sans-serif" font-size="11" lengthAdjust="spacingAndGlyphs" textLength="41" x="41" y="271.2729">EscEnd</text><text fill="#000000" font-family="sans-serif" font-size="11" lengthAdjust="spacingAndGlyphs" textLength="40" x="41" y="284.0776">EscEsc</text><line style="stroke: #A80036; stroke-width: 1.5;" x1="36" x2="194" y1="290.6719" y2="290.6719"/><!--MD5=[72d2c2714d5b439165c57447022afdec]
class C_0003277087640557799971--><rect fill="#FEFECE" filter="url(#f1qr7xrve1msjb)" height="99.2188" id="C_0003277087640557799971" style="stroke: #A80036; stroke-width: 1.5;" width="307" x="933.5" y="565.4531"/><ellipse cx="1001.75" cy="581.4531" fill="#ADD1B2" rx="11" ry="11" style="stroke: #A80036; stroke-width: 1.0;"/><path d="M1004.7188,587.0938 Q1004.1406,587.3906 1003.5,587.5313 Q1002.8594,587.6875 1002.1563,587.6875 Q999.6563,587.6875 998.3281,586.0469 Q997.0156,584.3906 997.0156,581.2656 Q997.0156,578.1406 998.3281,576.4844 Q999.6563,574.8281 1002.1563,574.8281 Q1002.8594,574.8281 1003.5,574.9844 Q1004.1563,575.1406 1004.7188,575.4375 L1004.7188,578.1563 Q1004.0938,577.5781 1003.5,577.3125 Q1002.9063,577.0313 1002.2813,577.0313 Q1000.9375,577.0313 1000.25,578.1094 Q999.5625,579.1719 999.5625,581.2656 Q999.5625,583.3594 1000.25,584.4375 Q1000.9375,585.5 1002.2813,585.5 Q1002.9063,585.5 1003.5,585.2344 Q1004.0938,584.9531 1004.7188,584.375 L1004.7188,587.0938 Z "/><text fill="#000000" font-family="sans-serif" font-size="12" lengthAdjust="spacingAndGlyphs" textLength="162" x="1022.25" y="585.6074">io::protocol::PacketParam</text><line style="stroke: #A80036; stroke-width: 1.5;" x1="934.5" x2="1239.5" y1="597.4531" y2="597.4531"/><ellipse cx="944.5" cy="608.4531" fill="#84BE84" rx="3" ry="3" style="stroke: #038048; stroke-width: 1.0;"/><text fill="#000000" font-family="sans-serif" font-size="11" lengthAdjust="spacingAndGlyphs" textLength="281" x="953.5" y="611.6636">PacketParam(std::uint32_t v, std::uint8_t s) : void</text><ellipse cx="944.5" cy="621.2578" fill="#84BE84" rx="3" ry="3" style="stroke: #038048; stroke-width: 1.0;"/><text fill="#000000" font-family="sans-serif" font-size="11" lengthAdjust="spacingAndGlyphs" textLength="159" x="953.5" y="624.4683">PacketParam&lt;T&gt;(T v) : void</text><line style="stroke: #A80036; stroke-width: 1.5;" x1="934.5" x2="1239.5" y1="631.0625" y2="631.0625"/><ellipse cx="944.5" cy="642.0625" fill="none" rx="3" ry="3" style="stroke: #038048; stroke-width: 1.0;"/><text fill="#000000" font-family="sans-serif" font-size="11" lengthAdjust="spacingAndGlyphs" textLength="98" x="953.5" y="645.2729">size : std::uint8_t</text><ellipse cx="944.5" cy="654.8672" fill="none" rx="3" ry="3" style="stroke: #038048; stroke-width: 1.0;"/><text fill="#000000" font-family="sans-serif" font-size="11" lengthAdjust="spacingAndGlyphs" textLength="113" x="953.5" y="658.0776">value : std::uint32_t</text><!--MD5=[a296b3227c73c67410f4977d15d780d7]
class C_0017232777488057089840--><rect fill="#FEFECE" filter="url(#f1qr7xrve1msjb)" height="440.1406" id="C_0017232777488057089840" style="stroke: #A80036; stroke-width: 1.5;" width="498" x="782" y="28.9531"/><ellipse cx="943.75" cy="44.9531" fill="#ADD1B2" rx="11" ry="11" style="stroke: #A80036; stroke-width: 1.0;"/><path d="M946.7188,50.5938 Q946.1406,50.8906 945.5,51.0313 Q944.8594,51.1875 944.1563,51.1875 Q941.6563,51.1875 940.3281,49.5469 Q939.0156,47.8906 939.0156,44.7656 Q939.0156,41.6406 940.3281,39.9844 Q941.6563,38.3281 944.1563,38.3281 Q944.8594,38.3281 945.5,38.4844 Q946.1563,38.6406 946.7188,38.9375 L946.7188,41.6563 Q946.0938,41.0781 945.5,40.8125 Q944.9063,40.5313 944.2813,40.5313 Q942.9375,40.5313 942.25,41.6094 Q941.5625,42.6719 941.5625,44.7656 Q941.5625,46.8594 942.25,47.9375 Q942.9375,49 944.2813,49 Q944.9063,49 945.5,48.7344 Q946.0938,48.4531 946.7188,47.875 L946.7188,50.5938 Z "/><text fill="#000000" font-family="sans-serif" font-size="12" lengthAdjust="spacingAndGlyphs" textLength="166" x="964.25" y="49.1074">io::protocol::FujiBusPacket</text><line style="stroke: #A80036; stroke-width: 1.5;" x1="783" x2="1279" y1="60.9531" y2="60.9531"/><ellipse cx="793" cy="71.9531" fill="#84BE84" rx="3" ry="3" style="stroke: #038048; stroke-width: 1.0;"/><text fill="#000000" font-family="sans-serif" font-size="11" lengthAdjust="spacingAndGlyphs" textLength="177" x="802" y="75.1636">FujiBusPacket() = default : void</text><ellipse cx="793" cy="84.7578" fill="#84BE84" rx="3" ry="3" style="stroke: #038048; stroke-width: 1.0;"/><text fill="#000000" font-family="sans-serif" font-size="11" lengthAdjust="spacingAndGlyphs" textLength="472" x="802" y="87.9683">FujiBusPacket&lt;Args...&gt;(WireDeviceId dev, std::uint8_t cmd, Args &amp;&amp;... args) : void</text><line style="stroke: #A80036; stroke-width: 1.0; stroke-dasharray: 1.0,2.0;" x1="783" x2="1279" y1="94.5625" y2="94.5625"/><ellipse cx="793" cy="105.5625" fill="#84BE84" rx="3" ry="3" style="stroke: #038048; stroke-width: 1.0;"/><text fill="#000000" font-family="sans-serif" font-size="11" lengthAdjust="spacingAndGlyphs" textLength="273" x="802" y="108.7729">addParamU16(std::uint16_t v) : FujiBusPacket &amp;</text><ellipse cx="793" cy="118.3672" fill="#84BE84" rx="3" ry="3" style="stroke: #038048; stroke-width: 1.0;"/><text fill="#000000" font-family="sans-serif" font-size="11" lengthAdjust="spacingAndGlyphs" textLength="273" x="802" y="121.5776">addParamU32(std::uint32_t v) : FujiBusPacket &amp;</text><ellipse cx="793" cy="131.1719" fill="#84BE84" rx="3" ry="3" style="stroke: #038048; stroke-width: 1.0;"/><text fill="#000000" font-family="sans-serif" font-size="11" lengthAdjust="spacingAndGlyphs" textLength="259" x="802" y="134.3823">addParamU8(std::uint8_t v) : FujiBusPacket &amp;</text><rect fill="#F24D5C" height="6" style="stroke: #C82930; stroke-width: 1.0;" width="6" x="790" y="140.9766"/><text fill="#000000" font-family="sans-serif" font-size="11" lengthAdjust="spacingAndGlyphs" textLength="331" x="802" y="147.187">calcChecksum(const ByteBuffer &amp; buf) const : std::uint8_t</text><ellipse cx="793" cy="156.7813" fill="#84BE84" rx="3" ry="3" style="stroke: #038048; stroke-width: 1.0;"/><text fill="#000000" font-family="sans-serif" font-size="11" lengthAdjust="spacingAndGlyphs" textLength="166" x="802" y="159.9917">clearData() : FujiBusPacket &amp;</text><ellipse cx="793" cy="169.5859" fill="#84BE84" rx="3" ry="3" style="stroke: #038048; stroke-width: 1.0;"/><text fill="#000000" font-family="sans-serif" font-size="11" lengthAdjust="spacingAndGlyphs" textLength="175" x="802" y="172.7964">command() const : std::uint8_t</text><ellipse cx="793" cy="182.3906" fill="#84BE84" rx="3" ry="3" style="stroke: #038048; stroke-width: 1.0;"/><text fill="#000000" font-family="sans-serif" font-size="11" lengthAdjust="spacingAndGlyphs" textLength="278" x="802" y="185.6011">data() const : const std::optional&lt;ByteBuffer&gt; &amp;</text><ellipse cx="793" cy="195.1953" fill="#84BE84" rx="3" ry="3" style="stroke: #038048; stroke-width: 1.0;"/><text fill="#000000" font-family="sans-serif" font-size="11" lengthAdjust="spacingAndGlyphs" textLength="276" x="802" y="198.4058">dataAsString() const : std::optional&lt;std::string&gt;</text><rect fill="#F24D5C" height="6" style="stroke: #C82930; stroke-width: 1.0;" width="6" x="790" y="205"/><text fill="#000000" font-family="sans-serif" font-size="11" lengthAdjust="spacingAndGlyphs" textLength="321" x="802" y="211.2104">decodeSLIP(const ByteBuffer &amp; input) const : ByteBuffer</text><ellipse cx="793" cy="220.8047" fill="#84BE84" rx="3" ry="3" style="stroke: #038048; stroke-width: 1.0;"/><text fill="#000000" font-family="sans-serif" font-size="11" lengthAdjust="spacingAndGlyphs" textLength="162" x="802" y="224.0151">device() const : WireDeviceId</text><rect fill="#F24D5C" height="6" style="stroke: #C82930; stroke-width: 1.0;" width="6" x="790" y="230.6094"/><text fill="#000000" font-family="sans-serif" font-size="11" lengthAdjust="spacingAndGlyphs" textLength="321" x="802" y="236.8198">encodeSLIP(const ByteBuffer &amp; input) const : ByteBuffer</text><ellipse cx="793" cy="246.4141" fill="#84BE84" rx="3" ry="3" style="stroke: #038048; stroke-width: 1.0;"/><text fill="#000000" font-family="sans-serif" font-size="11" lengthAdjust="spacingAndGlyphs" text-decoration="underline" textLength="425" x="802" y="249.6245">fromSerialized(const ByteBuffer &amp; input) : std::unique_ptr&lt;FujiBusPacket&gt;</text><ellipse cx="793" cy="259.2188" fill="#84BE84" rx="3" ry="3" style="stroke: #038048; stroke-width: 1.0;"/><text fill="#000000" font-family="sans-serif" font-size="11" lengthAdjust="spacingAndGlyphs" textLength="267" x="802" y="262.4292">param(unsigned int index) const : std::uint32_t</text><ellipse cx="793" cy="272.0234" fill="#84BE84" rx="3" ry="3" style="stroke: #038048; stroke-width: 1.0;"/><text fill="#000000" font-family="sans-serif" font-size="11" lengthAdjust="spacingAndGlyphs" textLength="195" x="802" y="275.2339">paramCount() const : unsigned int</text><rect fill="#F24D5C" height="6" style="stroke: #C82930; stroke-width: 1.0;" width="6" x="790" y="281.8281"/><text fill="#000000" font-family="sans-serif" font-size="11" lengthAdjust="spacingAndGlyphs" textLength="218" x="802" y="288.0386">parse(const ByteBuffer &amp; input) : bool</text><rect fill="#F24D5C" height="6" style="stroke: #C82930; stroke-width: 1.0;" width="6" x="790" y="294.6328"/><text fill="#000000" font-family="sans-serif" font-size="11" lengthAdjust="spacingAndGlyphs" textLength="227" x="802" y="300.8433">processArg(const std::string &amp; s) : void</text><rect fill="#F24D5C" height="6" style="stroke: #C82930; stroke-width: 1.0;" width="6" x="790" y="307.4375"/><text fill="#000000" font-family="sans-serif" font-size="11" lengthAdjust="spacingAndGlyphs" textLength="214" x="802" y="313.6479">processArg(ByteBuffer &amp;&amp; buf) : void</text><rect fill="#F24D5C" height="6" style="stroke: #C82930; stroke-width: 1.0;" width="6" x="790" y="320.2422"/><text fill="#000000" font-family="sans-serif" font-size="11" lengthAdjust="spacingAndGlyphs" textLength="239" x="802" y="326.4526">processArg(const ByteBuffer &amp; buf) : void</text><rect fill="#F24D5C" height="6" style="stroke: #C82930; stroke-width: 1.0;" width="6" x="790" y="333.0469"/><text fill="#000000" font-family="sans-serif" font-size="11" lengthAdjust="spacingAndGlyphs" textLength="189" x="802" y="339.2573">processArg(std::uint32_t v) : void</text><rect fill="#F24D5C" height="6" style="stroke: #C82930; stroke-width: 1.0;" width="6" x="790" y="345.8516"/><text fill="#000000" font-family="sans-serif" font-size="11" lengthAdjust="spacingAndGlyphs" textLength="189" x="802" y="352.062">processArg(std::uint16_t v) : void</text><rect fill="#F24D5C" height="6" style="stroke: #C82930; stroke-width: 1.0;" width="6" x="790" y="358.6563"/><text fill="#000000" font-family="sans-serif" font-size="11" lengthAdjust="spacingAndGlyphs" textLength="182" x="802" y="364.8667">processArg(std::uint8_t v) : void</text><ellipse cx="793" cy="374.4609" fill="#84BE84" rx="3" ry="3" style="stroke: #038048; stroke-width: 1.0;"/><text fill="#000000" font-family="sans-serif" font-size="11" lengthAdjust="spacingAndGlyphs" textLength="162" x="802" y="377.6714">serialize() const : ByteBuffer</text><ellipse cx="793" cy="387.2656" fill="#84BE84" rx="3" ry="3" style="stroke: #038048; stroke-width: 1.0;"/><text fill="#000000" font-family="sans-serif" font-size="11" lengthAdjust="spacingAndGlyphs" textLength="245" x="802" y="390.4761">setData(ByteBuffer data) : FujiBusPacket &amp;</text><ellipse cx="793" cy="400.0703" fill="#84BE84" rx="3" ry="3" style="stroke: #038048; stroke-width: 1.0;"/><text fill="#000000" font-family="sans-serif" font-size="11" lengthAdjust="spacingAndGlyphs" textLength="358" x="802" y="403.2808">tryParamU8(unsigned int index, std::uint8_t &amp; out) const : bool</text><line style="stroke: #A80036; stroke-width: 1.5;" x1="783" x2="1279" y1="409.875" y2="409.875"/><rect fill="none" height="6" style="stroke: #C82930; stroke-width: 1.0;" width="6" x="790" y="417.875"/><text fill="#000000" font-family="sans-serif" font-size="11" lengthAdjust="spacingAndGlyphs" textLength="138" x="802" y="424.0854">_command : std::uint8_t</text><rect fill="none" height="6" style="stroke: #C82930; stroke-width: 1.0;" width="6" x="790" y="430.6797"/><text fill="#000000" font-family="sans-serif" font-size="11" lengthAdjust="spacingAndGlyphs" textLength="192" x="802" y="436.8901">_data : std::optional&lt;ByteBuffer&gt;</text><rect fill="none" height="6" style="stroke: #C82930; stroke-width: 1.0;" width="6" x="790" y="443.4844"/><text fill="#000000" font-family="sans-serif" font-size="11" lengthAdjust="spacingAndGlyphs" textLength="125" x="802" y="449.6948">_device : WireDeviceId</text><rect fill="none" height="6" style="stroke: #C82930; stroke-width: 1.0;" width="6" x="790" y="456.2891"/><text fill="#000000" font-family="sans-serif" font-size="11" lengthAdjust="spacingAndGlyphs" textLength="215" x="802" y="462.4995">_params : std::vector&lt;PacketParam&gt;</text><!--MD5=[c8c5170bff1e9023eb4a587b4387aedc]
class C_0009954510640382192371--><rect fill="#FEFECE" filter="url(#f1qr7xrve1msjb)" height="112.0234" id="C_0009954510640382192371" style="stroke: #A80036; stroke-width: 1.5;" width="201" x="230.5" y="192.9531"/><ellipse cx="245.5" cy="208.9531" fill="#ADD1B2" rx="11" ry="11" style="stroke: #A80036; stroke-width: 1.0;"/><path d="M248.4688,214.5938 Q247.8906,214.8906 247.25,215.0313 Q246.6094,215.1875 245.9063,215.1875 Q243.4063,215.1875 242.0781,213.5469 Q240.7656,211.8906 240.7656,208.7656 Q240.7656,205.6406 242.0781,203.9844 Q243.4063,202.3281 245.9063,202.3281 Q246.6094,202.3281 247.25,202.4844 Q247.9063,202.6406 248.4688,202.9375 L248.4688,205.6563 Q247.8438,205.0781 247.25,204.8125 Q246.6563,204.5313 246.0313,204.5313 Q244.6875,204.5313 244,205.6094 Q243.3125,206.6719 243.3125,208.7656 Q243.3125,210.8594 244,211.9375 Q244.6875,213 246.0313,213 Q246.6563,213 247.25,212.7344 Q247.8438,212.4531 248.4688,211.875 L248.4688,214.5938 Z "/><text fill="#000000" font-family="sans-serif" font-size="12" lengthAdjust="spacingAndGlyphs" textLength="169" x="259.5" y="213.1074">io::protocol::FujiBusHeader</text><line style="stroke: #A80036; stroke-width: 1.5;" x1="231.5" x2="430.5" y1="224.9531" y2="224.9531"/><line style="stroke: #A80036; stroke-width: 1.5;" x1="231.5" x2="430.5" y1="232.9531" y2="232.9531"/><ellipse cx="241.5" cy="243.9531" fill="none" rx="3" ry="3" style="stroke: #038048; stroke-width: 1.0;"/><text fill="#000000" font-family="sans-serif" font-size="11" lengthAdjust="spacingAndGlyphs" textLength="133" x="250.5" y="247.1636">checksum : std::uint8_t</text><ellipse cx="241.5" cy="256.7578" fill="none" rx="3" ry="3" style="stroke: #038048; stroke-width: 1.0;"/><text fill="#000000" font-family="sans-serif" font-size="11" lengthAdjust="spacingAndGlyphs" textLength="132" x="250.5" y="259.9683">command : std::uint8_t</text><ellipse cx="241.5" cy="269.5625" fill="none" rx="3" ry="3" style="stroke: #038048; stroke-width: 1.0;"/><text fill="#000000" font-family="sans-serif" font-size="11" lengthAdjust="spacingAndGlyphs" textLength="108" x="250.5" y="272.7729">descr : std::uint8_t</text><ellipse cx="241.5" cy="282.3672" fill="none" rx="3" ry="3" style="stroke: #038048; stroke-width: 1.0;"/><text fill="#000000" font-family="sans-serif" font-size="11" lengthAdjust="spacingAndGlyphs" textLength="112" x="250.5" y="285.5776">device : std::uint8_t</text><ellipse cx="241.5" cy="295.1719" fill="none" rx="3" ry="3" style="stroke: #038048; stroke-width: 1.0;"/><text fill="#000000" font-family="sans-serif" font-size="11" lengthAdjust="spacingAndGlyphs" textLength="118" x="250.5" y="298.3823">length : std::uint16_t</text><!--MD5=[be25510d78858c14ac0642f996831e24]
class C_0007700754280455587098--><rect fill="#FEFECE" filter="url(#f1qr7xrve1msjb)" height="137.6328" id="C_0007700754280455587098" style="stroke: #A80036; stroke-width: 1.5;" width="224" x="467" y="179.9531"/><ellipse cx="482" cy="195.9531" fill="#EB937F" rx="11" ry="11" style="stroke: #A80036; stroke-width: 1.0;"/><path d="M486.1094,201.9531 L478.3906,201.9531 L478.3906,189.5625 L486.1094,189.5625 L486.1094,191.7188 L480.8438,191.7188 L480.8438,194.3906 L485.6094,194.3906 L485.6094,196.5469 L480.8438,196.5469 L480.8438,199.7969 L486.1094,199.7969 L486.1094,201.9531 Z "/><text fill="#000000" font-family="sans-serif" font-size="12" lengthAdjust="spacingAndGlyphs" textLength="192" x="496" y="200.1074">io::protocol::NetworkCommand</text><line style="stroke: #A80036; stroke-width: 1.5;" x1="468" x2="690" y1="211.9531" y2="211.9531"/><text fill="#000000" font-family="sans-serif" font-size="11" lengthAdjust="spacingAndGlyphs" textLength="30" x="473" y="226.1636">Open</text><text fill="#000000" font-family="sans-serif" font-size="11" lengthAdjust="spacingAndGlyphs" textLength="28" x="473" y="238.9683">Read</text><text fill="#000000" font-family="sans-serif" font-size="11" lengthAdjust="spacingAndGlyphs" textLength="28" x="473" y="251.7729">Write</text><text fill="#000000" font-family="sans-serif" font-size="11" lengthAdjust="spacingAndGlyphs" textLength="32" x="473" y="264.5776">Close</text><text fill="#000000" font-family="sans-serif" font-size="11" lengthAdjust="spacingAndGlyphs" textLength="21" x="473" y="277.3823">Info</text><text fill="#000000" font-family="sans-serif" font-size="11" lengthAdjust="spacingAndGlyphs" textLength="49" x="473" y="290.187">InfoRead</text><text fill="#000000" font-family="sans-serif" font-size="11" lengthAdjust="spacingAndGlyphs" textLength="109" x="473" y="302.9917">TranslateConfigure</text><line style="stroke: #A80036; stroke-width: 1.5;" x1="468" x2="690" y1="309.5859" y2="309.5859"/><!--MD5=[9842c50a11ef1af3dcd3a820eb5cd4d4]
class C_0015699043703645047876--><rect fill="#FEFECE" filter="url(#f1qr7xrve1msjb)" height="137.6328" id="C_0015699043703645047876" style="stroke: #A80036; stroke-width: 1.5;" width="199" x="15.5" y="545.9531"/><ellipse cx="30.5" cy="561.9531" fill="#EB937F" rx="11" ry="11" style="stroke: #A80036; stroke-width: 1.0;"/><path d="M34.6094,567.9531 L26.8906,567.9531 L26.8906,555.5625 L34.6094,555.5625 L34.6094,557.7188 L29.3438,557.7188 L29.3438,560.3906 L34.1094,560.3906 L34.1094,562.5469 L29.3438,562.5469 L29.3438,565.7969 L34.6094,565.7969 L34.6094,567.9531 Z "/><text fill="#000000" font-family="sans-serif" font-size="12" lengthAdjust="spacingAndGlyphs" textLength="167" x="44.5" y="566.1074">io::protocol::DiskCommand</text><line style="stroke: #A80036; stroke-width: 1.5;" x1="16.5" x2="213.5" y1="577.9531" y2="577.9531"/><text fill="#000000" font-family="sans-serif" font-size="11" lengthAdjust="spacingAndGlyphs" textLength="34" x="21.5" y="592.1636">Mount</text><text fill="#000000" font-family="sans-serif" font-size="11" lengthAdjust="spacingAndGlyphs" textLength="51" x="21.5" y="604.9683">Unmount</text><text fill="#000000" font-family="sans-serif" font-size="11" lengthAdjust="spacingAndGlyphs" textLength="65" x="21.5" y="617.7729">ReadSector</text><text fill="#000000" font-family="sans-serif" font-size="11" lengthAdjust="spacingAndGlyphs" textLength="65" x="21.5" y="630.5776">WriteSector</text><text fill="#000000" font-family="sans-serif" font-size="11" lengthAdjust="spacingAndGlyphs" textLength="21" x="21.5" y="643.3823">Info</text><text fill="#000000" font-family="sans-serif" font-size="11" lengthAdjust="spacingAndGlyphs" textLength="80" x="21.5" y="656.187">ClearChanged</text><text fill="#000000" font-family="sans-serif" font-size="11" lengthAdjust="spacingAndGlyphs" textLength="38" x="21.5" y="668.9917">Create</text><line style="stroke: #A80036; stroke-width: 1.5;" x1="16.5" x2="213.5" y1="675.5859" y2="675.5859"/><!--MD5=[300a4d773173d5b8caf27f723ff28295]
class C_0003895064208135060769--><rect fill="#FEFECE" filter="url(#f1qr7xrve1msjb)" height="124.8281" id="C_0003895064208135060769" style="stroke: #A80036; stroke-width: 1.5;" width="194" x="250" y="552.4531"/><ellipse cx="265" cy="568.4531" fill="#EB937F" rx="11" ry="11" style="stroke: #A80036; stroke-width: 1.0;"/><path d="M269.1094,574.4531 L261.3906,574.4531 L261.3906,562.0625 L269.1094,562.0625 L269.1094,564.2188 L263.8438,564.2188 L263.8438,566.8906 L268.6094,566.8906 L268.6094,569.0469 L263.8438,569.0469 L263.8438,572.2969 L269.1094,572.2969 L269.1094,574.4531 Z "/><text fill="#000000" font-family="sans-serif" font-size="12" lengthAdjust="spacingAndGlyphs" textLength="162" x="279" y="572.6074">io::protocol::FileCommand</text><line style="stroke: #A80036; stroke-width: 1.5;" x1="251" x2="443" y1="584.4531" y2="584.4531"/><text fill="#000000" font-family="sans-serif" font-size="11" lengthAdjust="spacingAndGlyphs" textLength="23" x="256" y="598.6636">Stat</text><text fill="#000000" font-family="sans-serif" font-size="11" lengthAdjust="spacingAndGlyphs" textLength="71" x="256" y="611.4683">ListDirectory</text><text fill="#000000" font-family="sans-serif" font-size="11" lengthAdjust="spacingAndGlyphs" textLength="47" x="256" y="624.2729">ReadFile</text><text fill="#000000" font-family="sans-serif" font-size="11" lengthAdjust="spacingAndGlyphs" textLength="47" x="256" y="637.0776">WriteFile</text><text fill="#000000" font-family="sans-serif" font-size="11" lengthAdjust="spacingAndGlyphs" textLength="69" x="256" y="649.8823">ResolvePath</text><text fill="#000000" font-family="sans-serif" font-size="11" lengthAdjust="spacingAndGlyphs" textLength="80" x="256" y="662.687">MakeDirectory</text><line style="stroke: #A80036; stroke-width: 1.5;" x1="251" x2="443" y1="669.2813" y2="669.2813"/><!--MD5=[addcdd6b4528a1d851ee81289eb82bbc]
class C_0004628219160953719395--><rect fill="#FEFECE" filter="url(#f1qr7xrve1msjb)" height="112.0234" id="C_0004628219160953719395" style="stroke: #A80036; stroke-width: 1.5;" width="194" x="479" y="558.9531"/><ellipse cx="494" cy="574.9531" fill="#EB937F" rx="11" ry="11" style="stroke: #A80036; stroke-width: 1.0;"/><path d="M498.1094,580.9531 L490.3906,580.9531 L490.3906,568.5625 L498.1094,568.5625 L498.1094,570.7188 L492.8438,570.7188 L492.8438,573.3906 L497.6094,573.3906 L497.6094,575.5469 L492.8438,575.5469 L492.8438,578.7969 L498.1094,578.7969 L498.1094,580.9531 Z "/><text fill="#000000" font-family="sans-serif" font-size="12" lengthAdjust="spacingAndGlyphs" textLength="162" x="508" y="579.1074">io::protocol::FujiCommand</text><line style="stroke: #A80036; stroke-width: 1.5;" x1="480" x2="672" y1="590.9531" y2="590.9531"/><text fill="#000000" font-family="sans-serif" font-size="11" lengthAdjust="spacingAndGlyphs" textLength="32" x="485" y="605.1636">Reset</text><text fill="#000000" font-family="sans-serif" font-size="11" lengthAdjust="spacingAndGlyphs" textLength="45" x="485" y="617.9683">GetSsid</text><text fill="#000000" font-family="sans-serif" font-size="11" lengthAdjust="spacingAndGlyphs" textLength="61" x="485" y="630.7729">GetMounts</text><text fill="#000000" font-family="sans-serif" font-size="11" lengthAdjust="spacingAndGlyphs" textLength="53" x="485" y="643.5776">SetMount</text><text fill="#000000" font-family="sans-serif" font-size="11" lengthAdjust="spacingAndGlyphs" textLength="54" x="485" y="656.3823">GetMount</text><line style="stroke: #A80036; stroke-width: 1.5;" x1="480" x2="672" y1="662.9766" y2="662.9766"/><!--MD5=[cb314516d6ddc798f7f1bd1d56576700]
class C_0010997942004027913014--><rect fill="#FEFECE" filter="url(#f1qr7xrve1msjb)" height="99.2188" id="C_0010997942004027913014" style="stroke: #A80036; stroke-width: 1.5;" width="218" x="6" y="744.9531"/><ellipse cx="21" cy="760.9531" fill="#EB937F" rx="11" ry="11" style="stroke: #A80036; stroke-width: 1.0;"/><path d="M25.1094,766.9531 L17.3906,766.9531 L17.3906,754.5625 L25.1094,754.5625 L25.1094,756.7188 L19.8438,756.7188 L19.8438,759.3906 L24.6094,759.3906 L24.6094,761.5469 L19.8438,761.5469 L19.8438,764.7969 L25.1094,764.7969 L25.1094,766.9531 Z "/><text fill="#000000" font-family="sans-serif" font-size="12" lengthAdjust="spacingAndGlyphs" textLength="186" x="35" y="765.1074">io::protocol::ModemCommand</text><line style="stroke: #A80036; stroke-width: 1.5;" x1="7" x2="223" y1="776.9531" y2="776.9531"/><text fill="#000000" font-family="sans-serif" font-size="11" lengthAdjust="spacingAndGlyphs" textLength="28" x="12" y="791.1636">Write</text><text fill="#000000" font-family="sans-serif" font-size="11" lengthAdjust="spacingAndGlyphs" textLength="28" x="12" y="803.9683">Read</text><text fill="#000000" font-family="sans-serif" font-size="11" lengthAdjust="spacingAndGlyphs" textLength="37" x="12" y="816.7729">Status</text><text fill="#000000" font-family="sans-serif" font-size="11" lengthAdjust="spacingAndGlyphs" textLength="41" x="12" y="829.5776">Control</text><line style="stroke: #A80036; stroke-width: 1.5;" x1="7" x2="223" y1="836.1719" y2="836.1719"/><!--MD5=[7015635e4296b2847478ac1955dfb845]
reverse link C_0017232777488057089840 to C_0015225225004340369839--><path d="M886.67,480.3731 C870.23,506.6231 854.7,531.4231 841.58,552.3631 " fill="none" id="C_0017232777488057089840&lt;-C_0015225225004340369839" style="stroke: #A80036; stroke-width: 1.0;"/><polygon fill="#FFFFFF" points="893.77,469.0431,887.1949,472.0042,887.3993,479.2124,893.9744,476.2513,893.77,469.0431" style="stroke: #A80036; stroke-width: 1.0;"/><rect fill="none" height="6" style="stroke: #C82930; stroke-width: 1.0;" width="6" x="874" y="505.0195"/><text fill="#000000" font-family="sans-serif" font-size="13" lengthAdjust="spacingAndGlyphs" textLength="48" x="884" y="512.02">_device</text><!--MD5=[f47f967b175eade81981f12930178d3b]
reverse link C_0017232777488057089840 to C_0003277087640557799971--><path d="M1066.71,482.0731 C1071.52,513.3231 1076,542.4331 1079.52,565.3131 " fill="none" id="C_0017232777488057089840&lt;-C_0003277087640557799971" style="stroke: #A80036; stroke-width: 1.0;"/><polygon fill="#FFFFFF" points="1064.71,469.0431,1061.6667,475.5806,1066.5307,480.9042,1069.5741,474.3668,1064.71,469.0431" style="stroke: #A80036; stroke-width: 1.0;"/><rect fill="none" height="6" style="stroke: #C82930; stroke-width: 1.0;" width="6" x="1074" y="505.0195"/><text fill="#000000" font-family="sans-serif" font-size="13" lengthAdjust="spacingAndGlyphs" textLength="56" x="1084" y="512.02">_params</text><!--MD5=[390c2004c9aac76758688f85ede2245c]
link C_0010627602090167488081 to C_0009954510640382192371--><!--MD5=[9f50a0313246774be6a9bbf2fc7a9164]
link C_0009954510640382192371 to C_0007700754280455587098--><!--MD5=[3af962011eb5151f5d7f965ce28ddeae]
link C_0010627602090167488081 to C_0015699043703645047876--><!--MD5=[4ff09bda491f332c0eb874ef696f66b0]
link C_0015699043703645047876 to C_0003895064208135060769--><!--MD5=[249302f85a1dc5effcb34fa965bba171]
link C_0003895064208135060769 to C_0004628219160953719395--><!--MD5=[3de6b808f16725356db157677b314cac]
link C_0015699043703645047876 to C_0010997942004027913014--><!--MD5=[6846846ce23bf08082342c70a2b822de]
@startuml
title IO Protocols (auto-gen from clang-uml)
enum "io::protocol::WireDeviceId" as C_0015225225004340369839
enum C_0015225225004340369839 {
FujiNet
Clock
ModemService
DiskService
NetworkService
FileService
}
enum "io::protocol::SlipByte" as C_0010627602090167488081
enum C_0010627602090167488081 {
End
Escape
EscEnd
EscEsc
}
class "io::protocol::PacketParam" as C_0003277087640557799971
class C_0003277087640557799971 {
+PacketParam(std::uint32_t v, std::uint8_t s) : void
+PacketParam<T>(T v) : void
__
+size : std::uint8_t
+value : std::uint32_t
}
class "io::protocol::FujiBusPacket" as C_0017232777488057089840
class C_0017232777488057089840 {
+FujiBusPacket() = default : void
+FujiBusPacket<Args...>(WireDeviceId dev, std::uint8_t cmd, Args &&... args) : void
..
+addParamU16(std::uint16_t v) : FujiBusPacket &
+addParamU32(std::uint32_t v) : FujiBusPacket &
+addParamU8(std::uint8_t v) : FujiBusPacket &
-calcChecksum(const ByteBuffer & buf) const : std::uint8_t
+clearData() : FujiBusPacket &
+command() const : std::uint8_t
+data() const : const std::optional<ByteBuffer> &
+dataAsString() const : std::optional<std::string>
-decodeSLIP(const ByteBuffer & input) const : ByteBuffer
+device() const : WireDeviceId
-encodeSLIP(const ByteBuffer & input) const : ByteBuffer
{static} +fromSerialized(const ByteBuffer & input) : std::unique_ptr<FujiBusPacket>
+param(unsigned int index) const : std::uint32_t
+paramCount() const : unsigned int
-parse(const ByteBuffer & input) : bool
-processArg(const std::string & s) : void
-processArg(ByteBuffer && buf) : void
-processArg(const ByteBuffer & buf) : void
-processArg(std::uint32_t v) : void
-processArg(std::uint16_t v) : void
-processArg(std::uint8_t v) : void
+serialize() const : ByteBuffer
+setData(ByteBuffer data) : FujiBusPacket &
+tryParamU8(unsigned int index, std::uint8_t & out) const : bool
__
-_command : std::uint8_t
-_data : std::optional<ByteBuffer>
-_device : WireDeviceId
-_params : std::vector<PacketParam>
}
class "io::protocol::FujiBusHeader" as C_0009954510640382192371
class C_0009954510640382192371 {
__
+checksum : std::uint8_t
+command : std::uint8_t
+descr : std::uint8_t
+device : std::uint8_t
+length : std::uint16_t
}
enum "io::protocol::NetworkCommand" as C_0007700754280455587098
enum C_0007700754280455587098 {
Open
Read
Write
Close
Info
InfoRead
TranslateConfigure
}
enum "io::protocol::DiskCommand" as C_0015699043703645047876
enum C_0015699043703645047876 {
Mount
Unmount
ReadSector
WriteSector
Info
ClearChanged
Create
}
enum "io::protocol::FileCommand" as C_0003895064208135060769
enum C_0003895064208135060769 {
Stat
ListDirectory
ReadFile
WriteFile
ResolvePath
MakeDirectory
}
enum "io::protocol::FujiCommand" as C_0004628219160953719395
enum C_0004628219160953719395 {
Reset
GetSsid
GetMounts
SetMount
GetMount
}
enum "io::protocol::ModemCommand" as C_0010997942004027913014
enum C_0010997942004027913014 {
Write
Read
Status
Control
}
C_0017232777488057089840 o- - C_0015225225004340369839 : -_device
C_0017232777488057089840 o- - C_0003277087640557799971 : -_params

@enduml

PlantUML version 1.2020.02(Sun Mar 01 10:22:07 UTC 2020)
(GPL source distribution)
Java Runtime: OpenJDK Runtime Environment
JVM: OpenJDK 64-Bit Server VM
Java Version: 17.0.19+10
Operating System: Linux
Default Encoding: UTF-8
Language: en
Country: null
--></g></svg>