<?xml version="1.0" encoding="UTF-8" standalone="no"?><svg xmlns="http://www.w3.org/2000/svg" xmlns:xlink="http://www.w3.org/1999/xlink" contentScriptType="application/ecmascript" contentStyleType="text/css" height="880px" preserveAspectRatio="none" style="width:1291px;height:880px;" version="1.1" viewBox="0 0 1291 880" width="1291px" zoomAndPan="magnify"><defs><filter height="300%" id="f1ileav63nm1tm" width="300%" x="-1" y="-1"><feGaussianBlur result="blurOut" stdDeviation="2.0"/><feColorMatrix in="blurOut" result="blurOut2" type="matrix" values="0 0 0 0 0 0 0 0 0 0 0 0 0 0 0 0 0 0 .4 0"/><feOffset dx="4.0" dy="4.0" in="blurOut2" result="blurOut3"/><feBlend in="SourceGraphic" in2="blurOut3" mode="normal"/></filter></defs><g><text fill="#000000" font-family="sans-serif" font-size="18" lengthAdjust="spacingAndGlyphs" textLength="346" x="476" y="16.708">IO Protocols (auto-gen from clang-uml)</text><!--MD5=[31061a5abc77c90cb479eaa4f6f83796]
class C_0015225225004340369839--><rect fill="#FEFECE" filter="url(#f1ileav63nm1tm)" height="124.8281" id="C_0015225225004340369839" style="stroke: #A80036; stroke-width: 1.5;" width="190" x="699" y="545.9531"/><ellipse cx="714" cy="561.9531" fill="#EB937F" rx="11" ry="11" style="stroke: #A80036; stroke-width: 1.0;"/><path d="M718.1094,567.9531 L710.3906,567.9531 L710.3906,555.5625 L718.1094,555.5625 L718.1094,557.7188 L712.8438,557.7188 L712.8438,560.3906 L717.6094,560.3906 L717.6094,562.5469 L712.8438,562.5469 L712.8438,565.7969 L718.1094,565.7969 L718.1094,567.9531 Z "/><text fill="#000000" font-family="sans-serif" font-size="12" lengthAdjust="spacingAndGlyphs" textLength="158" x="728" y="566.1074">io::protocol::WireDeviceId</text><line style="stroke: #A80036; stroke-width: 1.5;" x1="700" x2="888" y1="577.9531" y2="577.9531"/><text fill="#000000" font-family="sans-serif" font-size="11" lengthAdjust="spacingAndGlyphs" textLength="38" x="705" y="592.1636">FujiNet</text><text fill="#000000" font-family="sans-serif" font-size="11" lengthAdjust="spacingAndGlyphs" textLength="30" x="705" y="604.9683">Clock</text><text fill="#000000" font-family="sans-serif" font-size="11" lengthAdjust="spacingAndGlyphs" textLength="83" x="705" y="617.7729">ModemService</text><text fill="#000000" font-family="sans-serif" font-size="11" lengthAdjust="spacingAndGlyphs" textLength="66" x="705" y="630.5776">DiskService</text><text fill="#000000" font-family="sans-serif" font-size="11" lengthAdjust="spacingAndGlyphs" textLength="88" x="705" y="643.3823">NetworkService</text><text fill="#000000" font-family="sans-serif" font-size="11" lengthAdjust="spacingAndGlyphs" textLength="61" x="705" y="656.187">FileService</text><line style="stroke: #A80036; stroke-width: 1.5;" x1="700" x2="888" y1="662.7813" y2="662.7813"/><!--MD5=[9842c50a11ef1af3dcd3a820eb5cd4d4]
class C_0015699043703645047876--><rect fill="#FEFECE" filter="url(#f1ileav63nm1tm)" height="163.2422" id="C_0015699043703645047876" style="stroke: #A80036; stroke-width: 1.5;" width="199" x="18.5" y="167.4531"/><ellipse cx="33.5" cy="183.4531" fill="#EB937F" rx="11" ry="11" style="stroke: #A80036; stroke-width: 1.0;"/><path d="M37.6094,189.4531 L29.8906,189.4531 L29.8906,177.0625 L37.6094,177.0625 L37.6094,179.2188 L32.3438,179.2188 L32.3438,181.8906 L37.1094,181.8906 L37.1094,184.0469 L32.3438,184.0469 L32.3438,187.2969 L37.6094,187.2969 L37.6094,189.4531 Z "/><text fill="#000000" font-family="sans-serif" font-size="12" lengthAdjust="spacingAndGlyphs" textLength="167" x="47.5" y="187.6074">io::protocol::DiskCommand</text><line style="stroke: #A80036; stroke-width: 1.5;" x1="19.5" x2="216.5" y1="199.4531" y2="199.4531"/><text fill="#000000" font-family="sans-serif" font-size="11" lengthAdjust="spacingAndGlyphs" textLength="34" x="24.5" y="213.6636">Mount</text><text fill="#000000" font-family="sans-serif" font-size="11" lengthAdjust="spacingAndGlyphs" textLength="51" x="24.5" y="226.4683">Unmount</text><text fill="#000000" font-family="sans-serif" font-size="11" lengthAdjust="spacingAndGlyphs" textLength="65" x="24.5" y="239.2729">ReadSector</text><text fill="#000000" font-family="sans-serif" font-size="11" lengthAdjust="spacingAndGlyphs" textLength="65" x="24.5" y="252.0776">WriteSector</text><text fill="#000000" font-family="sans-serif" font-size="11" lengthAdjust="spacingAndGlyphs" textLength="21" x="24.5" y="264.8823">Info</text><text fill="#000000" font-family="sans-serif" font-size="11" lengthAdjust="spacingAndGlyphs" textLength="80" x="24.5" y="277.687">ClearChanged</text><text fill="#000000" font-family="sans-serif" font-size="11" lengthAdjust="spacingAndGlyphs" textLength="38" x="24.5" y="290.4917">Create</text><text fill="#000000" font-family="sans-serif" font-size="11" lengthAdjust="spacingAndGlyphs" textLength="72" x="24.5" y="303.2964">ReadSectors</text><text fill="#000000" font-family="sans-serif" font-size="11" lengthAdjust="spacingAndGlyphs" textLength="72" x="24.5" y="316.1011">WriteSectors</text><line style="stroke: #A80036; stroke-width: 1.5;" x1="19.5" x2="216.5" y1="322.6953" y2="322.6953"/><!--MD5=[addcdd6b4528a1d851ee81289eb82bbc]
class C_0004628219160953719395--><rect fill="#FEFECE" filter="url(#f1ileav63nm1tm)" height="112.0234" id="C_0004628219160953719395" style="stroke: #A80036; stroke-width: 1.5;" width="194" x="253" y="192.9531"/><ellipse cx="268" cy="208.9531" fill="#EB937F" rx="11" ry="11" style="stroke: #A80036; stroke-width: 1.0;"/><path d="M272.1094,214.9531 L264.3906,214.9531 L264.3906,202.5625 L272.1094,202.5625 L272.1094,204.7188 L266.8438,204.7188 L266.8438,207.3906 L271.6094,207.3906 L271.6094,209.5469 L266.8438,209.5469 L266.8438,212.7969 L272.1094,212.7969 L272.1094,214.9531 Z "/><text fill="#000000" font-family="sans-serif" font-size="12" lengthAdjust="spacingAndGlyphs" textLength="162" x="282" y="213.1074">io::protocol::FujiCommand</text><line style="stroke: #A80036; stroke-width: 1.5;" x1="254" x2="446" y1="224.9531" y2="224.9531"/><text fill="#000000" font-family="sans-serif" font-size="11" lengthAdjust="spacingAndGlyphs" textLength="32" x="259" y="239.1636">Reset</text><text fill="#000000" font-family="sans-serif" font-size="11" lengthAdjust="spacingAndGlyphs" textLength="45" x="259" y="251.9683">GetSsid</text><text fill="#000000" font-family="sans-serif" font-size="11" lengthAdjust="spacingAndGlyphs" textLength="61" x="259" y="264.7729">GetMounts</text><text fill="#000000" font-family="sans-serif" font-size="11" lengthAdjust="spacingAndGlyphs" textLength="53" x="259" y="277.5776">SetMount</text><text fill="#000000" font-family="sans-serif" font-size="11" lengthAdjust="spacingAndGlyphs" textLength="54" x="259" y="290.3823">GetMount</text><line style="stroke: #A80036; stroke-width: 1.5;" x1="254" x2="446" y1="296.9766" y2="296.9766"/><!--MD5=[cb314516d6ddc798f7f1bd1d56576700]
class C_0010997942004027913014--><rect fill="#FEFECE" filter="url(#f1ileav63nm1tm)" height="99.2188" id="C_0010997942004027913014" style="stroke: #A80036; stroke-width: 1.5;" width="218" x="482" y="199.4531"/><ellipse cx="497" cy="215.4531" fill="#EB937F" rx="11" ry="11" style="stroke: #A80036; stroke-width: 1.0;"/><path d="M501.1094,221.4531 L493.3906,221.4531 L493.3906,209.0625 L501.1094,209.0625 L501.1094,211.2188 L495.8438,211.2188 L495.8438,213.8906 L500.6094,213.8906 L500.6094,216.0469 L495.8438,216.0469 L495.8438,219.2969 L501.1094,219.2969 L501.1094,221.4531 Z "/><text fill="#000000" font-family="sans-serif" font-size="12" lengthAdjust="spacingAndGlyphs" textLength="186" x="511" y="219.6074">io::protocol::ModemCommand</text><line style="stroke: #A80036; stroke-width: 1.5;" x1="483" x2="699" y1="231.4531" y2="231.4531"/><text fill="#000000" font-family="sans-serif" font-size="11" lengthAdjust="spacingAndGlyphs" textLength="28" x="488" y="245.6636">Write</text><text fill="#000000" font-family="sans-serif" font-size="11" lengthAdjust="spacingAndGlyphs" textLength="28" x="488" y="258.4683">Read</text><text fill="#000000" font-family="sans-serif" font-size="11" lengthAdjust="spacingAndGlyphs" textLength="37" x="488" y="271.2729">Status</text><text fill="#000000" font-family="sans-serif" font-size="11" lengthAdjust="spacingAndGlyphs" textLength="41" x="488" y="284.0776">Control</text><line style="stroke: #A80036; stroke-width: 1.5;" x1="483" x2="699" y1="290.6719" y2="290.6719"/><!--MD5=[00589bb63b8d16bc46b4cc6055ae058f]
class C_0010627602090167488081--><rect fill="#FEFECE" filter="url(#f1ileav63nm1tm)" height="99.2188" id="C_0010627602090167488081" style="stroke: #A80036; stroke-width: 1.5;" width="160" x="38" y="558.9531"/><ellipse cx="53" cy="574.9531" fill="#EB937F" rx="11" ry="11" style="stroke: #A80036; stroke-width: 1.0;"/><path d="M57.1094,580.9531 L49.3906,580.9531 L49.3906,568.5625 L57.1094,568.5625 L57.1094,570.7188 L51.8438,570.7188 L51.8438,573.3906 L56.6094,573.3906 L56.6094,575.5469 L51.8438,575.5469 L51.8438,578.7969 L57.1094,578.7969 L57.1094,580.9531 Z "/><text fill="#000000" font-family="sans-serif" font-size="12" lengthAdjust="spacingAndGlyphs" textLength="128" x="67" y="579.1074">io::protocol::SlipByte</text><line style="stroke: #A80036; stroke-width: 1.5;" x1="39" x2="197" y1="590.9531" y2="590.9531"/><text fill="#000000" font-family="sans-serif" font-size="11" lengthAdjust="spacingAndGlyphs" textLength="21" x="44" y="605.1636">End</text><text fill="#000000" font-family="sans-serif" font-size="11" lengthAdjust="spacingAndGlyphs" textLength="41" x="44" y="617.9683">Escape</text><text fill="#000000" font-family="sans-serif" font-size="11" lengthAdjust="spacingAndGlyphs" textLength="41" x="44" y="630.7729">EscEnd</text><text fill="#000000" font-family="sans-serif" font-size="11" lengthAdjust="spacingAndGlyphs" textLength="40" x="44" y="643.5776">EscEsc</text><line style="stroke: #A80036; stroke-width: 1.5;" x1="39" x2="197" y1="650.1719" y2="650.1719"/><!--MD5=[72d2c2714d5b439165c57447022afdec]
class C_0003277087640557799971--><rect fill="#FEFECE" filter="url(#f1ileav63nm1tm)" height="99.2188" id="C_0003277087640557799971" style="stroke: #A80036; stroke-width: 1.5;" width="307" x="924.5" y="558.9531"/><ellipse cx="992.75" cy="574.9531" fill="#ADD1B2" rx="11" ry="11" style="stroke: #A80036; stroke-width: 1.0;"/><path d="M995.7188,580.5938 Q995.1406,580.8906 994.5,581.0313 Q993.8594,581.1875 993.1563,581.1875 Q990.6563,581.1875 989.3281,579.5469 Q988.0156,577.8906 988.0156,574.7656 Q988.0156,571.6406 989.3281,569.9844 Q990.6563,568.3281 993.1563,568.3281 Q993.8594,568.3281 994.5,568.4844 Q995.1563,568.6406 995.7188,568.9375 L995.7188,571.6563 Q995.0938,571.0781 994.5,570.8125 Q993.9063,570.5313 993.2813,570.5313 Q991.9375,570.5313 991.25,571.6094 Q990.5625,572.6719 990.5625,574.7656 Q990.5625,576.8594 991.25,577.9375 Q991.9375,579 993.2813,579 Q993.9063,579 994.5,578.7344 Q995.0938,578.4531 995.7188,577.875 L995.7188,580.5938 Z "/><text fill="#000000" font-family="sans-serif" font-size="12" lengthAdjust="spacingAndGlyphs" textLength="162" x="1013.25" y="579.1074">io::protocol::PacketParam</text><line style="stroke: #A80036; stroke-width: 1.5;" x1="925.5" x2="1230.5" y1="590.9531" y2="590.9531"/><ellipse cx="935.5" cy="601.9531" fill="#84BE84" rx="3" ry="3" style="stroke: #038048; stroke-width: 1.0;"/><text fill="#000000" font-family="sans-serif" font-size="11" lengthAdjust="spacingAndGlyphs" textLength="281" x="944.5" y="605.1636">PacketParam(std::uint32_t v, std::uint8_t s) : void</text><ellipse cx="935.5" cy="614.7578" fill="#84BE84" rx="3" ry="3" style="stroke: #038048; stroke-width: 1.0;"/><text fill="#000000" font-family="sans-serif" font-size="11" lengthAdjust="spacingAndGlyphs" textLength="159" x="944.5" y="617.9683">PacketParam&lt;T&gt;(T v) : void</text><line style="stroke: #A80036; stroke-width: 1.5;" x1="925.5" x2="1230.5" y1="624.5625" y2="624.5625"/><ellipse cx="935.5" cy="635.5625" fill="none" rx="3" ry="3" style="stroke: #038048; stroke-width: 1.0;"/><text fill="#000000" font-family="sans-serif" font-size="11" lengthAdjust="spacingAndGlyphs" textLength="98" x="944.5" y="638.7729">size : std::uint8_t</text><ellipse cx="935.5" cy="648.3672" fill="none" rx="3" ry="3" style="stroke: #038048; stroke-width: 1.0;"/><text fill="#000000" font-family="sans-serif" font-size="11" lengthAdjust="spacingAndGlyphs" textLength="113" x="944.5" y="651.5776">value : std::uint32_t</text><!--MD5=[a296b3227c73c67410f4977d15d780d7]
class C_0017232777488057089840--><rect fill="#FEFECE" filter="url(#f1ileav63nm1tm)" height="440.1406" id="C_0017232777488057089840" style="stroke: #A80036; stroke-width: 1.5;" width="498" x="782" y="28.9531"/><ellipse cx="943.75" cy="44.9531" fill="#ADD1B2" rx="11" ry="11" style="stroke: #A80036; stroke-width: 1.0;"/><path d="M946.7188,50.5938 Q946.1406,50.8906 945.5,51.0313 Q944.8594,51.1875 944.1563,51.1875 Q941.6563,51.1875 940.3281,49.5469 Q939.0156,47.8906 939.0156,44.7656 Q939.0156,41.6406 940.3281,39.9844 Q941.6563,38.3281 944.1563,38.3281 Q944.8594,38.3281 945.5,38.4844 Q946.1563,38.6406 946.7188,38.9375 L946.7188,41.6563 Q946.0938,41.0781 945.5,40.8125 Q944.9063,40.5313 944.2813,40.5313 Q942.9375,40.5313 942.25,41.6094 Q941.5625,42.6719 941.5625,44.7656 Q941.5625,46.8594 942.25,47.9375 Q942.9375,49 944.2813,49 Q944.9063,49 945.5,48.7344 Q946.0938,48.4531 946.7188,47.875 L946.7188,50.5938 Z "/><text fill="#000000" font-family="sans-serif" font-size="12" lengthAdjust="spacingAndGlyphs" textLength="166" x="964.25" y="49.1074">io::protocol::FujiBusPacket</text><line style="stroke: #A80036; stroke-width: 1.5;" x1="783" x2="1279" y1="60.9531" y2="60.9531"/><ellipse cx="793" cy="71.9531" fill="#84BE84" rx="3" ry="3" style="stroke: #038048; stroke-width: 1.0;"/><text fill="#000000" font-family="sans-serif" font-size="11" lengthAdjust="spacingAndGlyphs" textLength="177" x="802" y="75.1636">FujiBusPacket() = default : void</text><ellipse cx="793" cy="84.7578" fill="#84BE84" rx="3" ry="3" style="stroke: #038048; stroke-width: 1.0;"/><text fill="#000000" font-family="sans-serif" font-size="11" lengthAdjust="spacingAndGlyphs" textLength="472" x="802" y="87.9683">FujiBusPacket&lt;Args...&gt;(WireDeviceId dev, std::uint8_t cmd, Args &amp;&amp;... args) : void</text><line style="stroke: #A80036; stroke-width: 1.0; stroke-dasharray: 1.0,2.0;" x1="783" x2="1279" y1="94.5625" y2="94.5625"/><ellipse cx="793" cy="105.5625" fill="#84BE84" rx="3" ry="3" style="stroke: #038048; stroke-width: 1.0;"/><text fill="#000000" font-family="sans-serif" font-size="11" lengthAdjust="spacingAndGlyphs" textLength="273" x="802" y="108.7729">addParamU16(std::uint16_t v) : FujiBusPacket &amp;</text><ellipse cx="793" cy="118.3672" fill="#84BE84" rx="3" ry="3" style="stroke: #038048; stroke-width: 1.0;"/><text fill="#000000" font-family="sans-serif" font-size="11" lengthAdjust="spacingAndGlyphs" textLength="273" x="802" y="121.5776">addParamU32(std::uint32_t v) : FujiBusPacket &amp;</text><ellipse cx="793" cy="131.1719" fill="#84BE84" rx="3" ry="3" style="stroke: #038048; stroke-width: 1.0;"/><text fill="#000000" font-family="sans-serif" font-size="11" lengthAdjust="spacingAndGlyphs" textLength="259" x="802" y="134.3823">addParamU8(std::uint8_t v) : FujiBusPacket &amp;</text><rect fill="#F24D5C" height="6" style="stroke: #C82930; stroke-width: 1.0;" width="6" x="790" y="140.9766"/><text fill="#000000" font-family="sans-serif" font-size="11" lengthAdjust="spacingAndGlyphs" textLength="331" x="802" y="147.187">calcChecksum(const ByteBuffer &amp; buf) const : std::uint8_t</text><ellipse cx="793" cy="156.7813" fill="#84BE84" rx="3" ry="3" style="stroke: #038048; stroke-width: 1.0;"/><text fill="#000000" font-family="sans-serif" font-size="11" lengthAdjust="spacingAndGlyphs" textLength="166" x="802" y="159.9917">clearData() : FujiBusPacket &amp;</text><ellipse cx="793" cy="169.5859" fill="#84BE84" rx="3" ry="3" style="stroke: #038048; stroke-width: 1.0;"/><text fill="#000000" font-family="sans-serif" font-size="11" lengthAdjust="spacingAndGlyphs" textLength="175" x="802" y="172.7964">command() const : std::uint8_t</text><ellipse cx="793" cy="182.3906" fill="#84BE84" rx="3" ry="3" style="stroke: #038048; stroke-width: 1.0;"/><text fill="#000000" font-family="sans-serif" font-size="11" lengthAdjust="spacingAndGlyphs" textLength="278" x="802" y="185.6011">data() const : const std::optional&lt;ByteBuffer&gt; &amp;</text><ellipse cx="793" cy="195.1953" fill="#84BE84" rx="3" ry="3" style="stroke: #038048; stroke-width: 1.0;"/><text fill="#000000" font-family="sans-serif" font-size="11" lengthAdjust="spacingAndGlyphs" textLength="276" x="802" y="198.4058">dataAsString() const : std::optional&lt;std::string&gt;</text><rect fill="#F24D5C" height="6" style="stroke: #C82930; stroke-width: 1.0;" width="6" x="790" y="205"/><text fill="#000000" font-family="sans-serif" font-size="11" lengthAdjust="spacingAndGlyphs" textLength="321" x="802" y="211.2104">decodeSLIP(const ByteBuffer &amp; input) const : ByteBuffer</text><ellipse cx="793" cy="220.8047" fill="#84BE84" rx="3" ry="3" style="stroke: #038048; stroke-width: 1.0;"/><text fill="#000000" font-family="sans-serif" font-size="11" lengthAdjust="spacingAndGlyphs" textLength="162" x="802" y="224.0151">device() const : WireDeviceId</text><rect fill="#F24D5C" height="6" style="stroke: #C82930; stroke-width: 1.0;" width="6" x="790" y="230.6094"/><text fill="#000000" font-family="sans-serif" font-size="11" lengthAdjust="spacingAndGlyphs" textLength="321" x="802" y="236.8198">encodeSLIP(const ByteBuffer &amp; input) const : ByteBuffer</text><ellipse cx="793" cy="246.4141" fill="#84BE84" rx="3" ry="3" style="stroke: #038048; stroke-width: 1.0;"/><text fill="#000000" font-family="sans-serif" font-size="11" lengthAdjust="spacingAndGlyphs" text-decoration="underline" textLength="425" x="802" y="249.6245">fromSerialized(const ByteBuffer &amp; input) : std::unique_ptr&lt;FujiBusPacket&gt;</text><ellipse cx="793" cy="259.2188" fill="#84BE84" rx="3" ry="3" style="stroke: #038048; stroke-width: 1.0;"/><text fill="#000000" font-family="sans-serif" font-size="11" lengthAdjust="spacingAndGlyphs" textLength="267" x="802" y="262.4292">param(unsigned int index) const : std::uint32_t</text><ellipse cx="793" cy="272.0234" fill="#84BE84" rx="3" ry="3" style="stroke: #038048; stroke-width: 1.0;"/><text fill="#000000" font-family="sans-serif" font-size="11" lengthAdjust="spacingAndGlyphs" textLength="195" x="802" y="275.2339">paramCount() const : unsigned int</text><rect fill="#F24D5C" height="6" style="stroke: #C82930; stroke-width: 1.0;" width="6" x="790" y="281.8281"/><text fill="#000000" font-family="sans-serif" font-size="11" lengthAdjust="spacingAndGlyphs" textLength="218" x="802" y="288.0386">parse(const ByteBuffer &amp; input) : bool</text><rect fill="#F24D5C" height="6" style="stroke: #C82930; stroke-width: 1.0;" width="6" x="790" y="294.6328"/><text fill="#000000" font-family="sans-serif" font-size="11" lengthAdjust="spacingAndGlyphs" textLength="227" x="802" y="300.8433">processArg(const std::string &amp; s) : void</text><rect fill="#F24D5C" height="6" style="stroke: #C82930; stroke-width: 1.0;" width="6" x="790" y="307.4375"/><text fill="#000000" font-family="sans-serif" font-size="11" lengthAdjust="spacingAndGlyphs" textLength="214" x="802" y="313.6479">processArg(ByteBuffer &amp;&amp; buf) : void</text><rect fill="#F24D5C" height="6" style="stroke: #C82930; stroke-width: 1.0;" width="6" x="790" y="320.2422"/><text fill="#000000" font-family="sans-serif" font-size="11" lengthAdjust="spacingAndGlyphs" textLength="239" x="802" y="326.4526">processArg(const ByteBuffer &amp; buf) : void</text><rect fill="#F24D5C" height="6" style="stroke: #C82930; stroke-width: 1.0;" width="6" x="790" y="333.0469"/><text fill="#000000" font-family="sans-serif" font-size="11" lengthAdjust="spacingAndGlyphs" textLength="189" x="802" y="339.2573">processArg(std::uint32_t v) : void</text><rect fill="#F24D5C" height="6" style="stroke: #C82930; stroke-width: 1.0;" width="6" x="790" y="345.8516"/><text fill="#000000" font-family="sans-serif" font-size="11" lengthAdjust="spacingAndGlyphs" textLength="189" x="802" y="352.062">processArg(std::uint16_t v) : void</text><rect fill="#F24D5C" height="6" style="stroke: #C82930; stroke-width: 1.0;" width="6" x="790" y="358.6563"/><text fill="#000000" font-family="sans-serif" font-size="11" lengthAdjust="spacingAndGlyphs" textLength="182" x="802" y="364.8667">processArg(std::uint8_t v) : void</text><ellipse cx="793" cy="374.4609" fill="#84BE84" rx="3" ry="3" style="stroke: #038048; stroke-width: 1.0;"/><text fill="#000000" font-family="sans-serif" font-size="11" lengthAdjust="spacingAndGlyphs" textLength="162" x="802" y="377.6714">serialize() const : ByteBuffer</text><ellipse cx="793" cy="387.2656" fill="#84BE84" rx="3" ry="3" style="stroke: #038048; stroke-width: 1.0;"/><text fill="#000000" font-family="sans-serif" font-size="11" lengthAdjust="spacingAndGlyphs" textLength="245" x="802" y="390.4761">setData(ByteBuffer data) : FujiBusPacket &amp;</text><ellipse cx="793" cy="400.0703" fill="#84BE84" rx="3" ry="3" style="stroke: #038048; stroke-width: 1.0;"/><text fill="#000000" font-family="sans-serif" font-size="11" lengthAdjust="spacingAndGlyphs" textLength="358" x="802" y="403.2808">tryParamU8(unsigned int index, std::uint8_t &amp; out) const : bool</text><line style="stroke: #A80036; stroke-width: 1.5;" x1="783" x2="1279" y1="409.875" y2="409.875"/><rect fill="none" height="6" style="stroke: #C82930; stroke-width: 1.0;" width="6" x="790" y="417.875"/><text fill="#000000" font-family="sans-serif" font-size="11" lengthAdjust="spacingAndGlyphs" textLength="138" x="802" y="424.0854">_command : std::uint8_t</text><rect fill="none" height="6" style="stroke: #C82930; stroke-width: 1.0;" width="6" x="790" y="430.6797"/><text fill="#000000" font-family="sans-serif" font-size="11" lengthAdjust="spacingAndGlyphs" textLength="192" x="802" y="436.8901">_data : std::optional&lt;ByteBuffer&gt;</text><rect fill="none" height="6" style="stroke: #C82930; stroke-width: 1.0;" width="6" x="790" y="443.4844"/><text fill="#000000" font-family="sans-serif" font-size="11" lengthAdjust="spacingAndGlyphs" textLength="125" x="802" y="449.6948">_device : WireDeviceId</text><rect fill="none" height="6" style="stroke: #C82930; stroke-width: 1.0;" width="6" x="790" y="456.2891"/><text fill="#000000" font-family="sans-serif" font-size="11" lengthAdjust="spacingAndGlyphs" textLength="215" x="802" y="462.4995">_params : std::vector&lt;PacketParam&gt;</text><!--MD5=[c8c5170bff1e9023eb4a587b4387aedc]
class C_0009954510640382192371--><rect fill="#FEFECE" filter="url(#f1ileav63nm1tm)" height="112.0234" id="C_0009954510640382192371" style="stroke: #A80036; stroke-width: 1.5;" width="201" x="233.5" y="552.4531"/><ellipse cx="248.5" cy="568.4531" fill="#ADD1B2" rx="11" ry="11" style="stroke: #A80036; stroke-width: 1.0;"/><path d="M251.4688,574.0938 Q250.8906,574.3906 250.25,574.5313 Q249.6094,574.6875 248.9063,574.6875 Q246.4063,574.6875 245.0781,573.0469 Q243.7656,571.3906 243.7656,568.2656 Q243.7656,565.1406 245.0781,563.4844 Q246.4063,561.8281 248.9063,561.8281 Q249.6094,561.8281 250.25,561.9844 Q250.9063,562.1406 251.4688,562.4375 L251.4688,565.1563 Q250.8438,564.5781 250.25,564.3125 Q249.6563,564.0313 249.0313,564.0313 Q247.6875,564.0313 247,565.1094 Q246.3125,566.1719 246.3125,568.2656 Q246.3125,570.3594 247,571.4375 Q247.6875,572.5 249.0313,572.5 Q249.6563,572.5 250.25,572.2344 Q250.8438,571.9531 251.4688,571.375 L251.4688,574.0938 Z "/><text fill="#000000" font-family="sans-serif" font-size="12" lengthAdjust="spacingAndGlyphs" textLength="169" x="262.5" y="572.6074">io::protocol::FujiBusHeader</text><line style="stroke: #A80036; stroke-width: 1.5;" x1="234.5" x2="433.5" y1="584.4531" y2="584.4531"/><line style="stroke: #A80036; stroke-width: 1.5;" x1="234.5" x2="433.5" y1="592.4531" y2="592.4531"/><ellipse cx="244.5" cy="603.4531" fill="none" rx="3" ry="3" style="stroke: #038048; stroke-width: 1.0;"/><text fill="#000000" font-family="sans-serif" font-size="11" lengthAdjust="spacingAndGlyphs" textLength="133" x="253.5" y="606.6636">checksum : std::uint8_t</text><ellipse cx="244.5" cy="616.2578" fill="none" rx="3" ry="3" style="stroke: #038048; stroke-width: 1.0;"/><text fill="#000000" font-family="sans-serif" font-size="11" lengthAdjust="spacingAndGlyphs" textLength="132" x="253.5" y="619.4683">command : std::uint8_t</text><ellipse cx="244.5" cy="629.0625" fill="none" rx="3" ry="3" style="stroke: #038048; stroke-width: 1.0;"/><text fill="#000000" font-family="sans-serif" font-size="11" lengthAdjust="spacingAndGlyphs" textLength="108" x="253.5" y="632.2729">descr : std::uint8_t</text><ellipse cx="244.5" cy="641.8672" fill="none" rx="3" ry="3" style="stroke: #038048; stroke-width: 1.0;"/><text fill="#000000" font-family="sans-serif" font-size="11" lengthAdjust="spacingAndGlyphs" textLength="112" x="253.5" y="645.0776">device : std::uint8_t</text><ellipse cx="244.5" cy="654.6719" fill="none" rx="3" ry="3" style="stroke: #038048; stroke-width: 1.0;"/><text fill="#000000" font-family="sans-serif" font-size="11" lengthAdjust="spacingAndGlyphs" textLength="118" x="253.5" y="657.8823">length : std::uint16_t</text><!--MD5=[300a4d773173d5b8caf27f723ff28295]
class C_0003895064208135060769--><rect fill="#FEFECE" filter="url(#f1ileav63nm1tm)" height="124.8281" id="C_0003895064208135060769" style="stroke: #A80036; stroke-width: 1.5;" width="194" x="470" y="545.9531"/><ellipse cx="485" cy="561.9531" fill="#EB937F" rx="11" ry="11" style="stroke: #A80036; stroke-width: 1.0;"/><path d="M489.1094,567.9531 L481.3906,567.9531 L481.3906,555.5625 L489.1094,555.5625 L489.1094,557.7188 L483.8438,557.7188 L483.8438,560.3906 L488.6094,560.3906 L488.6094,562.5469 L483.8438,562.5469 L483.8438,565.7969 L489.1094,565.7969 L489.1094,567.9531 Z "/><text fill="#000000" font-family="sans-serif" font-size="12" lengthAdjust="spacingAndGlyphs" textLength="162" x="499" y="566.1074">io::protocol::FileCommand</text><line style="stroke: #A80036; stroke-width: 1.5;" x1="471" x2="663" y1="577.9531" y2="577.9531"/><text fill="#000000" font-family="sans-serif" font-size="11" lengthAdjust="spacingAndGlyphs" textLength="23" x="476" y="592.1636">Stat</text><text fill="#000000" font-family="sans-serif" font-size="11" lengthAdjust="spacingAndGlyphs" textLength="71" x="476" y="604.9683">ListDirectory</text><text fill="#000000" font-family="sans-serif" font-size="11" lengthAdjust="spacingAndGlyphs" textLength="47" x="476" y="617.7729">ReadFile</text><text fill="#000000" font-family="sans-serif" font-size="11" lengthAdjust="spacingAndGlyphs" textLength="47" x="476" y="630.5776">WriteFile</text><text fill="#000000" font-family="sans-serif" font-size="11" lengthAdjust="spacingAndGlyphs" textLength="69" x="476" y="643.3823">ResolvePath</text><text fill="#000000" font-family="sans-serif" font-size="11" lengthAdjust="spacingAndGlyphs" textLength="80" x="476" y="656.187">MakeDirectory</text><line style="stroke: #A80036; stroke-width: 1.5;" x1="471" x2="663" y1="662.7813" y2="662.7813"/><!--MD5=[be25510d78858c14ac0642f996831e24]
class C_0007700754280455587098--><rect fill="#FEFECE" filter="url(#f1ileav63nm1tm)" height="137.6328" id="C_0007700754280455587098" style="stroke: #A80036; stroke-width: 1.5;" width="224" x="6" y="731.9531"/><ellipse cx="21" cy="747.9531" fill="#EB937F" rx="11" ry="11" style="stroke: #A80036; stroke-width: 1.0;"/><path d="M25.1094,753.9531 L17.3906,753.9531 L17.3906,741.5625 L25.1094,741.5625 L25.1094,743.7188 L19.8438,743.7188 L19.8438,746.3906 L24.6094,746.3906 L24.6094,748.5469 L19.8438,748.5469 L19.8438,751.7969 L25.1094,751.7969 L25.1094,753.9531 Z "/><text fill="#000000" font-family="sans-serif" font-size="12" lengthAdjust="spacingAndGlyphs" textLength="192" x="35" y="752.1074">io::protocol::NetworkCommand</text><line style="stroke: #A80036; stroke-width: 1.5;" x1="7" x2="229" y1="763.9531" y2="763.9531"/><text fill="#000000" font-family="sans-serif" font-size="11" lengthAdjust="spacingAndGlyphs" textLength="30" x="12" y="778.1636">Open</text><text fill="#000000" font-family="sans-serif" font-size="11" lengthAdjust="spacingAndGlyphs" textLength="28" x="12" y="790.9683">Read</text><text fill="#000000" font-family="sans-serif" font-size="11" lengthAdjust="spacingAndGlyphs" textLength="28" x="12" y="803.7729">Write</text><text fill="#000000" font-family="sans-serif" font-size="11" lengthAdjust="spacingAndGlyphs" textLength="32" x="12" y="816.5776">Close</text><text fill="#000000" font-family="sans-serif" font-size="11" lengthAdjust="spacingAndGlyphs" textLength="21" x="12" y="829.3823">Info</text><text fill="#000000" font-family="sans-serif" font-size="11" lengthAdjust="spacingAndGlyphs" textLength="49" x="12" y="842.187">InfoRead</text><text fill="#000000" font-family="sans-serif" font-size="11" lengthAdjust="spacingAndGlyphs" textLength="109" x="12" y="854.9917">TranslateConfigure</text><line style="stroke: #A80036; stroke-width: 1.5;" x1="7" x2="229" y1="861.5859" y2="861.5859"/><!--MD5=[7015635e4296b2847478ac1955dfb845]
reverse link C_0017232777488057089840 to C_0015225225004340369839--><path d="M878.47,480.0331 C862.66,503.8931 847.72,526.4231 834.93,545.7031 " fill="none" id="C_0017232777488057089840&lt;-C_0015225225004340369839" style="stroke: #A80036; stroke-width: 1.0;"/><polygon fill="#FFFFFF" points="885.8,468.9831,879.1538,471.781,879.1802,478.992,885.8264,476.1942,885.8,468.9831" style="stroke: #A80036; stroke-width: 1.0;"/><rect fill="none" height="6" style="stroke: #C82930; stroke-width: 1.0;" width="6" x="868" y="505.0195"/><text fill="#000000" font-family="sans-serif" font-size="13" lengthAdjust="spacingAndGlyphs" textLength="48" x="878" y="512.02">_device</text><!--MD5=[f47f967b175eade81981f12930178d3b]
reverse link C_0017232777488057089840 to C_0003277087640557799971--><path d="M1061.54,482.2431 C1065.3,510.8231 1068.79,537.3931 1071.58,558.6331 " fill="none" id="C_0017232777488057089840&lt;-C_0003277087640557799971" style="stroke: #A80036; stroke-width: 1.0;"/><polygon fill="#FFFFFF" points="1059.79,468.9831,1056.6091,475.4548,1061.3595,480.88,1064.5404,474.4084,1059.79,468.9831" style="stroke: #A80036; stroke-width: 1.0;"/><rect fill="none" height="6" style="stroke: #C82930; stroke-width: 1.0;" width="6" x="1069" y="505.0195"/><text fill="#000000" font-family="sans-serif" font-size="13" lengthAdjust="spacingAndGlyphs" textLength="56" x="1079" y="512.02">_params</text><!--MD5=[d0e94fb2de58c81424a917c80cacdfb6]
link C_0015699043703645047876 to C_0004628219160953719395--><!--MD5=[676212289238dc4a6ce58149cf639313]
link C_0004628219160953719395 to C_0010997942004027913014--><!--MD5=[87d951960cd8057a3aa550afa2dee4fa]
link C_0015699043703645047876 to C_0010627602090167488081--><!--MD5=[390c2004c9aac76758688f85ede2245c]
link C_0010627602090167488081 to C_0009954510640382192371--><!--MD5=[bf5045dfbccc0d7cb387e122f335acb5]
link C_0009954510640382192371 to C_0003895064208135060769--><!--MD5=[22ddc747281ab4a8378684ee0874282a]
link C_0010627602090167488081 to C_0007700754280455587098--><!--MD5=[71b64976bd421ab9a7bb6fc20db0e024]
@startuml
title IO Protocols (auto-gen from clang-uml)
enum "io::protocol::WireDeviceId" as C_0015225225004340369839
enum C_0015225225004340369839 {
FujiNet
Clock
ModemService
DiskService
NetworkService
FileService
}
enum "io::protocol::DiskCommand" as C_0015699043703645047876
enum C_0015699043703645047876 {
Mount
Unmount
ReadSector
WriteSector
Info
ClearChanged
Create
ReadSectors
WriteSectors
}
enum "io::protocol::FujiCommand" as C_0004628219160953719395
enum C_0004628219160953719395 {
Reset
GetSsid
GetMounts
SetMount
GetMount
}
enum "io::protocol::ModemCommand" as C_0010997942004027913014
enum C_0010997942004027913014 {
Write
Read
Status
Control
}
enum "io::protocol::SlipByte" as C_0010627602090167488081
enum C_0010627602090167488081 {
End
Escape
EscEnd
EscEsc
}
class "io::protocol::PacketParam" as C_0003277087640557799971
class C_0003277087640557799971 {
+PacketParam(std::uint32_t v, std::uint8_t s) : void
+PacketParam<T>(T v) : void
__
+size : std::uint8_t
+value : std::uint32_t
}
class "io::protocol::FujiBusPacket" as C_0017232777488057089840
class C_0017232777488057089840 {
+FujiBusPacket() = default : void
+FujiBusPacket<Args...>(WireDeviceId dev, std::uint8_t cmd, Args &&... args) : void
..
+addParamU16(std::uint16_t v) : FujiBusPacket &
+addParamU32(std::uint32_t v) : FujiBusPacket &
+addParamU8(std::uint8_t v) : FujiBusPacket &
-calcChecksum(const ByteBuffer & buf) const : std::uint8_t
+clearData() : FujiBusPacket &
+command() const : std::uint8_t
+data() const : const std::optional<ByteBuffer> &
+dataAsString() const : std::optional<std::string>
-decodeSLIP(const ByteBuffer & input) const : ByteBuffer
+device() const : WireDeviceId
-encodeSLIP(const ByteBuffer & input) const : ByteBuffer
{static} +fromSerialized(const ByteBuffer & input) : std::unique_ptr<FujiBusPacket>
+param(unsigned int index) const : std::uint32_t
+paramCount() const : unsigned int
-parse(const ByteBuffer & input) : bool
-processArg(const std::string & s) : void
-processArg(ByteBuffer && buf) : void
-processArg(const ByteBuffer & buf) : void
-processArg(std::uint32_t v) : void
-processArg(std::uint16_t v) : void
-processArg(std::uint8_t v) : void
+serialize() const : ByteBuffer
+setData(ByteBuffer data) : FujiBusPacket &
+tryParamU8(unsigned int index, std::uint8_t & out) const : bool
__
-_command : std::uint8_t
-_data : std::optional<ByteBuffer>
-_device : WireDeviceId
-_params : std::vector<PacketParam>
}
class "io::protocol::FujiBusHeader" as C_0009954510640382192371
class C_0009954510640382192371 {
__
+checksum : std::uint8_t
+command : std::uint8_t
+descr : std::uint8_t
+device : std::uint8_t
+length : std::uint16_t
}
enum "io::protocol::FileCommand" as C_0003895064208135060769
enum C_0003895064208135060769 {
Stat
ListDirectory
ReadFile
WriteFile
ResolvePath
MakeDirectory
}
enum "io::protocol::NetworkCommand" as C_0007700754280455587098
enum C_0007700754280455587098 {
Open
Read
Write
Close
Info
InfoRead
TranslateConfigure
}
C_0017232777488057089840 o- - C_0015225225004340369839 : -_device
C_0017232777488057089840 o- - C_0003277087640557799971 : -_params

@enduml

PlantUML version 1.2020.02(Sun Mar 01 10:22:07 UTC 2020)
(GPL source distribution)
Java Runtime: OpenJDK Runtime Environment
JVM: OpenJDK 64-Bit Server VM
Java Version: 17.0.19+10
Operating System: Linux
Default Encoding: UTF-8
Language: en
Country: null
--></g></svg>